<mxfile host="app.diagrams.net" modified="2023-02-07T07:06:38.165Z" agent="5.0 (Windows NT 10.0; Win64; x64) AppleWebKit/537.36 (KHTML, like Gecko) Chrome/109.0.0.0 Safari/537.36" etag="bgaCQo_dO4wpy_rz8JBE" version="20.8.16" type="github">
  <diagram name="Страница 1" id="QRM4y5uNWgcde4-MNsDq">
    <mxGraphModel dx="1323" dy="1886" grid="1" gridSize="10" guides="1" tooltips="1" connect="1" arrows="1" fold="1" page="1" pageScale="1" pageWidth="827" pageHeight="1169" math="0" shadow="0">
      <root>
        <mxCell id="0" />
        <mxCell id="1" parent="0" />
        <mxCell id="m5aZgQxhw55R0HQJS1Za-1" value="" style="rounded=0;whiteSpace=wrap;html=1;fontFamily=Helvetica;fontSize=14;labelBackgroundColor=none;fontColor=none;noLabel=1;dashed=1;strokeColor=#000000;" parent="1" vertex="1">
          <mxGeometry x="625" y="-10" width="355" height="290" as="geometry" />
        </mxCell>
        <mxCell id="m5aZgQxhw55R0HQJS1Za-2" value="&lt;font style=&quot;font-size: 14px;&quot;&gt;Клиент&lt;/font&gt;" style="rounded=1;whiteSpace=wrap;html=1;fontFamily=Helvetica;strokeColor=#000000;" parent="1" vertex="1">
          <mxGeometry x="120" y="40" width="110" height="320" as="geometry" />
        </mxCell>
        <mxCell id="m5aZgQxhw55R0HQJS1Za-3" value="&lt;span style=&quot;color: rgb(32, 33, 36); text-align: start; background-color: rgb(255, 255, 255);&quot;&gt;&lt;font style=&quot;font-size: 14px;&quot;&gt;Сеть доставки контента&lt;/font&gt;&lt;/span&gt;" style="rounded=1;whiteSpace=wrap;html=1;fontFamily=Helvetica;strokeColor=#000000;" parent="1" vertex="1">
          <mxGeometry x="292" y="300" width="120" height="60" as="geometry" />
        </mxCell>
        <mxCell id="m5aZgQxhw55R0HQJS1Za-4" value="" style="endArrow=classic;html=1;rounded=0;fontFamily=Helvetica;fontSize=14;exitX=0;exitY=0.5;exitDx=0;exitDy=0;strokeWidth=2;entryX=1.006;entryY=0.906;entryDx=0;entryDy=0;entryPerimeter=0;strokeColor=#000000;" parent="1" source="m5aZgQxhw55R0HQJS1Za-3" target="m5aZgQxhw55R0HQJS1Za-2" edge="1">
          <mxGeometry width="50" height="50" relative="1" as="geometry">
            <mxPoint x="270" y="330" as="sourcePoint" />
            <mxPoint x="180" y="330" as="targetPoint" />
          </mxGeometry>
        </mxCell>
        <mxCell id="m5aZgQxhw55R0HQJS1Za-5" value="Статический контент" style="rounded=1;whiteSpace=wrap;html=1;fontFamily=Helvetica;fontSize=14;strokeColor=#000000;" parent="1" vertex="1">
          <mxGeometry x="465" y="300" width="120" height="60" as="geometry" />
        </mxCell>
        <mxCell id="m5aZgQxhw55R0HQJS1Za-6" style="edgeStyle=orthogonalEdgeStyle;rounded=0;orthogonalLoop=1;jettySize=auto;html=1;exitX=0.5;exitY=1;exitDx=0;exitDy=0;fontFamily=Helvetica;fontSize=14;strokeColor=#000000;" parent="1" source="m5aZgQxhw55R0HQJS1Za-3" target="m5aZgQxhw55R0HQJS1Za-3" edge="1">
          <mxGeometry relative="1" as="geometry" />
        </mxCell>
        <mxCell id="m5aZgQxhw55R0HQJS1Za-7" value="" style="endArrow=classic;html=1;rounded=0;fontFamily=Helvetica;fontSize=14;exitX=0;exitY=0.5;exitDx=0;exitDy=0;entryX=1;entryY=0.5;entryDx=0;entryDy=0;strokeWidth=2;strokeColor=#000000;" parent="1" source="m5aZgQxhw55R0HQJS1Za-5" target="m5aZgQxhw55R0HQJS1Za-3" edge="1">
          <mxGeometry width="50" height="50" relative="1" as="geometry">
            <mxPoint x="510" y="329.5" as="sourcePoint" />
            <mxPoint x="420" y="329.5" as="targetPoint" />
          </mxGeometry>
        </mxCell>
        <mxCell id="m5aZgQxhw55R0HQJS1Za-8" value="API шлюз" style="rounded=1;whiteSpace=wrap;html=1;fontFamily=Helvetica;fontSize=14;strokeColor=#000000;" parent="1" vertex="1">
          <mxGeometry x="465" y="40" width="120" height="220" as="geometry" />
        </mxCell>
        <mxCell id="m5aZgQxhw55R0HQJS1Za-9" value="" style="endArrow=classic;html=1;rounded=0;fontFamily=Helvetica;fontSize=14;entryX=0.003;entryY=0.728;entryDx=0;entryDy=0;strokeWidth=2;exitX=1;exitY=0.5;exitDx=0;exitDy=0;entryPerimeter=0;strokeColor=#000000;startArrow=none;" parent="1" source="m5aZgQxhw55R0HQJS1Za-27" target="m5aZgQxhw55R0HQJS1Za-8" edge="1">
          <mxGeometry width="50" height="50" relative="1" as="geometry">
            <mxPoint x="180" y="205" as="sourcePoint" />
            <mxPoint x="440" y="205" as="targetPoint" />
          </mxGeometry>
        </mxCell>
        <mxCell id="m5aZgQxhw55R0HQJS1Za-10" value="&lt;span style=&quot;color: rgb(77, 81, 86); font-family: arial, sans-serif; font-size: 14px; font-style: normal; font-variant-ligatures: normal; font-variant-caps: normal; font-weight: 400; letter-spacing: normal; orphans: 2; text-align: left; text-indent: 0px; text-transform: none; widows: 2; word-spacing: 0px; -webkit-text-stroke-width: 0px; background-color: rgb(255, 255, 255); text-decoration-thickness: initial; text-decoration-style: initial; text-decoration-color: initial; float: none; display: inline !important;&quot;&gt;Поставщик удостоверений&lt;/span&gt;" style="rounded=1;whiteSpace=wrap;html=1;fontFamily=Helvetica;fontSize=14;verticalAlign=top;strokeColor=#000000;" parent="1" vertex="1">
          <mxGeometry x="292" y="40" width="120" height="50" as="geometry" />
        </mxCell>
        <mxCell id="m5aZgQxhw55R0HQJS1Za-11" value="" style="endArrow=classic;html=1;rounded=0;fontFamily=Helvetica;fontSize=14;entryX=-0.003;entryY=0.112;entryDx=0;entryDy=0;entryPerimeter=0;exitX=1;exitY=0.5;exitDx=0;exitDy=0;strokeWidth=2;strokeColor=#000000;" parent="1" source="m5aZgQxhw55R0HQJS1Za-10" target="m5aZgQxhw55R0HQJS1Za-8" edge="1">
          <mxGeometry width="50" height="50" relative="1" as="geometry">
            <mxPoint x="225" y="130" as="sourcePoint" />
            <mxPoint x="475" y="130" as="targetPoint" />
          </mxGeometry>
        </mxCell>
        <mxCell id="m5aZgQxhw55R0HQJS1Za-12" value="" style="endArrow=classic;html=1;rounded=0;fontFamily=Helvetica;fontSize=14;entryX=0;entryY=0.5;entryDx=0;entryDy=0;exitX=1;exitY=0.078;exitDx=0;exitDy=0;exitPerimeter=0;strokeWidth=2;strokeColor=#000000;" parent="1" source="m5aZgQxhw55R0HQJS1Za-2" target="m5aZgQxhw55R0HQJS1Za-10" edge="1">
          <mxGeometry width="50" height="50" relative="1" as="geometry">
            <mxPoint x="190" y="64.80000000000001" as="sourcePoint" />
            <mxPoint x="260" y="65.10000000000002" as="targetPoint" />
          </mxGeometry>
        </mxCell>
        <mxCell id="m5aZgQxhw55R0HQJS1Za-13" value="Микросервис А" style="rounded=1;whiteSpace=wrap;html=1;fontFamily=Helvetica;fontSize=14;strokeColor=#000000;" parent="1" vertex="1">
          <mxGeometry x="610" y="-150" width="150" height="60" as="geometry" />
        </mxCell>
        <mxCell id="m5aZgQxhw55R0HQJS1Za-14" value="Микросервис Б" style="rounded=1;whiteSpace=wrap;html=1;fontFamily=Helvetica;fontSize=14;strokeColor=#000000;" parent="1" vertex="1">
          <mxGeometry x="650" y="120" width="150" height="60" as="geometry" />
        </mxCell>
        <mxCell id="m5aZgQxhw55R0HQJS1Za-15" value="Микросервис В" style="rounded=1;whiteSpace=wrap;html=1;fontFamily=Helvetica;fontSize=14;strokeColor=#000000;" parent="1" vertex="1">
          <mxGeometry x="650" y="200" width="150" height="60" as="geometry" />
        </mxCell>
        <mxCell id="m5aZgQxhw55R0HQJS1Za-16" value="" style="endArrow=classic;html=1;rounded=0;fontFamily=Helvetica;fontSize=14;entryX=0;entryY=0.5;entryDx=0;entryDy=0;exitX=1;exitY=0.5;exitDx=0;exitDy=0;strokeWidth=2;strokeColor=#000000;" parent="1" source="m5aZgQxhw55R0HQJS1Za-14" target="m5aZgQxhw55R0HQJS1Za-17" edge="1">
          <mxGeometry width="50" height="50" relative="1" as="geometry">
            <mxPoint x="790" y="149.76999999999998" as="sourcePoint" />
            <mxPoint x="874.6399999999999" y="149.40999999999997" as="targetPoint" />
          </mxGeometry>
        </mxCell>
        <mxCell id="m5aZgQxhw55R0HQJS1Za-17" value="Удаленный сервис" style="rounded=1;whiteSpace=wrap;html=1;fontFamily=Helvetica;fontSize=14;strokeColor=#000000;" parent="1" vertex="1">
          <mxGeometry x="1030" y="120" width="120" height="60" as="geometry" />
        </mxCell>
        <mxCell id="m5aZgQxhw55R0HQJS1Za-18" value="Микросервисы" style="text;html=1;align=center;verticalAlign=middle;resizable=0;points=[];autosize=1;strokeColor=none;fillColor=none;fontSize=14;fontFamily=Helvetica;fontColor=none;" parent="1" vertex="1">
          <mxGeometry x="740" y="-10" width="120" height="30" as="geometry" />
        </mxCell>
        <mxCell id="m5aZgQxhw55R0HQJS1Za-19" value="" style="endArrow=classic;html=1;rounded=0;fontFamily=Helvetica;fontSize=14;entryX=0;entryY=0.5;entryDx=0;entryDy=0;exitX=1;exitY=0.25;exitDx=0;exitDy=0;strokeWidth=2;strokeColor=#000000;" parent="1" source="m5aZgQxhw55R0HQJS1Za-8" target="m5aZgQxhw55R0HQJS1Za-13" edge="1">
          <mxGeometry width="50" height="50" relative="1" as="geometry">
            <mxPoint x="390" y="75.00000000000006" as="sourcePoint" />
            <mxPoint x="474.6400000000001" y="74.64000000000004" as="targetPoint" />
          </mxGeometry>
        </mxCell>
        <mxCell id="m5aZgQxhw55R0HQJS1Za-20" value="" style="endArrow=classic;html=1;rounded=0;fontFamily=Helvetica;fontSize=14;entryX=0;entryY=0.5;entryDx=0;entryDy=0;exitX=1;exitY=0.5;exitDx=0;exitDy=0;strokeWidth=2;strokeColor=#000000;" parent="1" source="m5aZgQxhw55R0HQJS1Za-8" target="m5aZgQxhw55R0HQJS1Za-14" edge="1">
          <mxGeometry width="50" height="50" relative="1" as="geometry">
            <mxPoint x="595" y="132.2800000000001" as="sourcePoint" />
            <mxPoint x="670" y="80" as="targetPoint" />
          </mxGeometry>
        </mxCell>
        <mxCell id="m5aZgQxhw55R0HQJS1Za-21" value="" style="endArrow=classic;html=1;rounded=0;fontFamily=Helvetica;fontSize=14;entryX=0;entryY=0.5;entryDx=0;entryDy=0;exitX=1;exitY=0.75;exitDx=0;exitDy=0;strokeWidth=2;strokeColor=#000000;" parent="1" source="m5aZgQxhw55R0HQJS1Za-8" target="m5aZgQxhw55R0HQJS1Za-15" edge="1">
          <mxGeometry width="50" height="50" relative="1" as="geometry">
            <mxPoint x="605" y="142.2800000000001" as="sourcePoint" />
            <mxPoint x="680" y="90" as="targetPoint" />
          </mxGeometry>
        </mxCell>
        <mxCell id="m5aZgQxhw55R0HQJS1Za-22" value="Управление" style="rounded=0;whiteSpace=wrap;html=1;labelBackgroundColor=none;fontFamily=Helvetica;fontSize=14;fontColor=none;strokeColor=#000000;" parent="1" vertex="1">
          <mxGeometry x="625" y="320" width="120" height="60" as="geometry" />
        </mxCell>
        <mxCell id="m5aZgQxhw55R0HQJS1Za-23" value="&lt;span style=&quot;font-family: arial, sans-serif; text-align: left; background-color: rgb(255, 255, 255);&quot;&gt;&lt;font color=&quot;#4d5156&quot;&gt;Протоколы обнаружения сервисов&lt;/font&gt;&lt;/span&gt;" style="rounded=0;whiteSpace=wrap;html=1;labelBackgroundColor=none;fontFamily=Helvetica;fontSize=14;fontColor=none;strokeColor=#000000;" parent="1" vertex="1">
          <mxGeometry x="860" y="320" width="120" height="60" as="geometry" />
        </mxCell>
        <mxCell id="m5aZgQxhw55R0HQJS1Za-24" value="" style="endArrow=classic;html=1;rounded=0;fontFamily=Helvetica;fontSize=14;exitX=0.5;exitY=0;exitDx=0;exitDy=0;strokeWidth=2;strokeColor=#000000;" parent="1" source="m5aZgQxhw55R0HQJS1Za-22" edge="1">
          <mxGeometry width="50" height="50" relative="1" as="geometry">
            <mxPoint x="595" y="215" as="sourcePoint" />
            <mxPoint x="685" y="280.0000000000002" as="targetPoint" />
          </mxGeometry>
        </mxCell>
        <mxCell id="m5aZgQxhw55R0HQJS1Za-25" value="" style="endArrow=classic;html=1;rounded=0;fontFamily=Helvetica;fontSize=14;exitX=1;exitY=0.5;exitDx=0;exitDy=0;strokeWidth=2;strokeColor=#000000;entryX=0;entryY=0.5;entryDx=0;entryDy=0;" parent="1" source="m5aZgQxhw55R0HQJS1Za-22" target="m5aZgQxhw55R0HQJS1Za-23" edge="1">
          <mxGeometry width="50" height="50" relative="1" as="geometry">
            <mxPoint x="680" y="330" as="sourcePoint" />
            <mxPoint x="679.935" y="289.97" as="targetPoint" />
          </mxGeometry>
        </mxCell>
        <mxCell id="m5aZgQxhw55R0HQJS1Za-26" value="" style="endArrow=classic;html=1;rounded=0;fontFamily=Helvetica;fontSize=14;strokeWidth=2;strokeColor=#000000;entryX=0.5;entryY=0;entryDx=0;entryDy=0;exitX=0.831;exitY=1.005;exitDx=0;exitDy=0;exitPerimeter=0;" parent="1" source="m5aZgQxhw55R0HQJS1Za-1" target="m5aZgQxhw55R0HQJS1Za-23" edge="1">
          <mxGeometry width="50" height="50" relative="1" as="geometry">
            <mxPoint x="920" y="290" as="sourcePoint" />
            <mxPoint x="780" y="360" as="targetPoint" />
          </mxGeometry>
        </mxCell>
        <mxCell id="m5aZgQxhw55R0HQJS1Za-27" value="Балансировщик" style="rounded=1;whiteSpace=wrap;html=1;fontFamily=Helvetica;fontSize=14;strokeColor=#000000;" parent="1" vertex="1">
          <mxGeometry x="292" y="171.5" width="120" height="57" as="geometry" />
        </mxCell>
        <mxCell id="m5aZgQxhw55R0HQJS1Za-28" value="" style="endArrow=classic;html=1;rounded=0;fontFamily=Helvetica;fontSize=14;entryX=0;entryY=0.5;entryDx=0;entryDy=0;strokeWidth=2;exitX=1;exitY=0.5;exitDx=0;exitDy=0;strokeColor=#000000;endFill=1;" parent="1" source="m5aZgQxhw55R0HQJS1Za-2" target="m5aZgQxhw55R0HQJS1Za-27" edge="1">
          <mxGeometry width="50" height="50" relative="1" as="geometry">
            <mxPoint x="230" y="200" as="sourcePoint" />
            <mxPoint x="465.3599999999999" y="200.15999999999997" as="targetPoint" />
          </mxGeometry>
        </mxCell>
        <mxCell id="m5aZgQxhw55R0HQJS1Za-29" value="БД&lt;br&gt;микросервиса А" style="shape=cylinder3;whiteSpace=wrap;html=1;boundedLbl=1;backgroundOutline=1;size=15;" parent="1" vertex="1">
          <mxGeometry x="860" y="20" width="100" height="100" as="geometry" />
        </mxCell>
        <mxCell id="m5aZgQxhw55R0HQJS1Za-30" value="" style="endArrow=classic;html=1;rounded=0;fontFamily=Helvetica;fontSize=14;strokeWidth=2;strokeColor=#000000;entryX=-0.003;entryY=0.583;entryDx=0;entryDy=0;exitX=1;exitY=0.5;exitDx=0;exitDy=0;entryPerimeter=0;" parent="1" source="m5aZgQxhw55R0HQJS1Za-15" target="m5aZgQxhw55R0HQJS1Za-32" edge="1">
          <mxGeometry width="50" height="50" relative="1" as="geometry">
            <mxPoint x="930.0049999999999" y="291.365" as="sourcePoint" />
            <mxPoint x="895" y="230" as="targetPoint" />
          </mxGeometry>
        </mxCell>
        <mxCell id="m5aZgQxhw55R0HQJS1Za-31" value="" style="endArrow=classic;html=1;rounded=0;fontFamily=Helvetica;fontSize=14;strokeWidth=2;strokeColor=#000000;entryX=0;entryY=0.5;entryDx=0;entryDy=0;exitX=1;exitY=0.5;exitDx=0;exitDy=0;entryPerimeter=0;" parent="1" source="m5aZgQxhw55R0HQJS1Za-13" target="m5aZgQxhw55R0HQJS1Za-29" edge="1">
          <mxGeometry width="50" height="50" relative="1" as="geometry">
            <mxPoint x="832.5" y="240" as="sourcePoint" />
            <mxPoint x="905" y="240" as="targetPoint" />
          </mxGeometry>
        </mxCell>
        <mxCell id="m5aZgQxhw55R0HQJS1Za-32" value="БД&lt;br&gt;микросервиса В" style="shape=cylinder3;whiteSpace=wrap;html=1;boundedLbl=1;backgroundOutline=1;size=15;" parent="1" vertex="1">
          <mxGeometry x="860" y="171.5" width="100" height="100" as="geometry" />
        </mxCell>
      </root>
    </mxGraphModel>
  </diagram>
</mxfile>
